{"title":"Captain Phillips 2013 WEBRip x264 AC3-MiLLENiUM (Deleted Scenes","uid":9270784,"size":1149802076,"categoryP":"video","categoryS":"movies","magnet":"?xt=urn:btih:1974d508d1359f7b3bea7f01ce5548b7be3f8378&amp;dn=Captain+Phillips+2013+WEBRip+x264+AC3-MiLLENiUM+%28Deleted+Scenes+&amp;tr=udp%3A%2F%2Ftracker.openbittorrent.com%3A80&amp;tr=udp%3A%2F%2Fopen.demonii.com%3A1337&amp;tr=udp%3A%2F%2Ftracker.coppersurfer.tk%3A6969&amp;tr=udp%3A%2F%2Fexodus.desync.com%3A6969","seeders":0,"leechers":1,"uploader":"General_Tim","files":5,"time":1385773994,"description":" &lt;a href=&quot;http://www.imdb.com/title/tt1535109/&quot; rel=&quot;nofollow&quot; target=&quot;_NEW&quot;&gt;http://www.imdb.com/title/tt1535109/&lt;/a&gt;\n\n\nThe true story of Captain Richard Phillips and the 2009 hijacking by Somali pirates of the US-flagged MV Maersk Alabama, the first American cargo ship to be hijacked in two hundred years.\n\nDirector: Paul Greengrass\nWriters: Billy Ray (screenplay), Richard Phillips (based upon the book &quot;A Captain's Duty: Somali Pirates, Navy SEALS, and Dangerous Days at Sea&quot; by)\nStars: Tom Hanks, Barkhad Abdi, Barkhad Abdirahman\nGenres: Action | Adventure | Biography | Crime | Drama | Thriller\nCountry: USA\nLanguage: English | Somali\n\n\nCaptain Phillips 2013 WEBRip x264 AC3-MiLLENiUM\n\nGeneral\n\nSource...............: 720p.HDR6.AC3.H264-N.E.T.ism [THANKS]\nIMDb Information.... : http://www.imdb.com/title/tt1535109/\nSample Included......: yes\nSubtitles............: Chinese Hardcoded throughout\n\nGeneral\nComplete name : Captain Phillips 2013 WEBRip x264 AC3-MiLLENiUM.mkv\nFormat : Matroska\nFormat version : Version 2\nFile size : 1.06 GiB\nDuration : 2h 13mn\nOverall bit rate mode : Variable\nOverall bit rate : 1 136 Kbps\nEncoded date : UTC 2013-11-29 15:13:41\nWriting application : mkvmerge v6.5.0 ('Isn't she lovely') built on Oct 20 2013 12:50:05\nWriting library : libebml v1.3.0 + libmatroska v1.4.1\n\nVideo\nID : 1\nFormat : AVC\nFormat/Info : Advanced Video Codec\nFormat profile : &lt;a class=&quot;__cf_email__&quot; href=&quot;/cdn-cgi/l/email-protection&quot; data-cfemail=&quot;763e1f111e363a425847&quot;&gt;[email&amp;#160;protected]&lt;/a&gt;&lt;script cf-hash='f9e31' type=&quot;text/javascript&quot;&gt;\n/* &lt;![CDATA[ */!function(){try{var t=&quot;currentScript&quot;in document?document.currentScript:function(){for(var t=document.getElementsByTagName(&quot;script&quot;),e=t.length;e--;)if(t[e].getAttribute(&quot;cf-hash&quot;))return t[e]}();if(t&amp;&amp;t.previousSibling){var e,r,n,i,c=t.previousSibling,a=c.getAttribute(&quot;data-cfemail&quot;);if(a){for(e=&quot;&quot;,r=parseInt(a.substr(0,2),16),n=2;a.length-n;n+=2)i=parseInt(a.substr(n,2),16)^r,e+=String.fromCharCode(i);e=document.createTextNode(e),c.parentNode.replaceChild(e,c)}}}catch(u){}}();/* ]]&gt; */&lt;/script&gt;\nFormat settings, CABAC : Yes\nFormat settings, ReFrames : 3 frames\nCodec ID : V_MPEG4/ISO/AVC\nDuration : 2h 13mn\nBit rate mode : Variable\nBit rate : 730 Kbps\nMaximum bit rate : 40.0 Mbps\nWidth : 720 pixels\nHeight : 384 pixels\nDisplay aspect ratio : 1.85:1\nFrame rate mode : Constant\nFrame rate : 30.000 fps\nColor space : YUV\nChroma subsampling : 4:2:0\nBit depth : 8 bits\nScan type : Progressive\nBits/(Pixel*Frame) : 0.088\nStream size : 698 MiB (64%)\nWriting library : x264 core 140 r2377 1ca7bb9\n\nAudio\nID : 2\nFormat : AC-3\nFormat/Info : Audio Coding 3\nMode extension : CM (complete main)\nFormat settings, Endianness : Big\nCodec ID : A_AC3\nDuration : 2h 13mn\nBit rate mode : Constant\nBit rate : 384 Kbps\nChannel(s) : 2 channels\nChannel positions : Front: L R\nSampling rate : 48.0 KHz\nBit depth : 16 bits\nCompression mode : Lossy\nDelay relative to video : 7ms\nStream size : 367 MiB (34%)\nLanguage : English\nDefault : Yes\nForced : No\n\n\n[img]http://s28.postimg.org/8gdn34da5/vlcsnap_2013_11_29_16h20m32s15.png[/img]\n[img]http://s28.postimg.org/9y3osf7el/vlcsnap_2013_11_29_16h20m47s169.png[/img]\n[img]http://s28.postimg.org/6pum1mvr1/vlcsnap_2013_11_29_16h20m56s244.png[/img]\n[img]http://s28.postimg.org/6ajc8m9tp/vlcsnap_2013_11_29_16h22m43s39.png[/img]\n[img]http://s28.postimg.org/fasj6jvb1/vlcsnap_2013_11_29_16h24m40s185.png[/img]\n[img]http://s28.postimg.org/d7i3yvvi5/vlcsnap_2013_11_29_16h26m26s224.png[/img]\n","torrent":{"xt":"urn:btih:1974d508d1359f7b3bea7f01ce5548b7be3f8378","amp;dn":"Captain+Phillips+2013+WEBRip+x264+AC3-MiLLENiUM+%28Deleted+Scenes+","amp;tr":["udp%3A%2F%2Ftracker.openbittorrent.com%3A80","udp%3A%2F%2Fopen.demonii.com%3A1337","udp%3A%2F%2Ftracker.coppersurfer.tk%3A6969","udp%3A%2F%2Fexodus.desync.com%3A6969"],"infoHash":"1974d508d1359f7b3bea7f01ce5548b7be3f8378","infoHashBuffer":{"type":"Buffer","data":[25,116,213,8,209,53,159,123,59,234,127,1,206,85,72,183,190,63,131,120]},"announce":[],"urlList":[]}}